<?xml version="1.0" encoding="utf-8"?>
<!-- Generator: Adobe Illustrator 15.0.2, SVG Export Plug-In . SVG Version: 6.00 Build 0)  -->
<!DOCTYPE svg PUBLIC "-//W3C//DTD SVG 1.1//EN" "http://www.w3.org/Graphics/SVG/1.1/DTD/svg11.dtd">
<svg version="1.1" id="Layer_1" xmlns="http://www.w3.org/2000/svg" xmlns:xlink="http://www.w3.org/1999/xlink" x="0px" y="0px"
	 width="82.006px" height="112.194px" viewBox="0 -12.177 82.006 112.194" enable-background="new 0 -12.177 82.006 112.194"
	 xml:space="preserve">
<path fill="#3498DB" d="M40.972,72.902c0,0-38.986,0.031-38.944,0.041c0.017,0.865,0,4.022,0,4.022l38.943,23.052l38.944-23.052
	c0,0-0.035-3.198-0.008-3.987C79.815,72.784,40.972,72.902,40.972,72.902z"/>
<path fill="#ECF0F1" d="M40.972,25.932c0,0-38.986,0.031-38.944,0.041c0.017,0.865,0,46.996,0,46.996L40.972,96.02l38.944-23.051
	c0,0-0.004-46.171,0.022-46.96C79.849,25.813,40.972,25.932,40.972,25.932z"/>
<path fill="#3498DB" d="M2.028,72.943c0.017,0.865,0,4.022,0,4.022l38.943,23.052V72.902C40.972,72.902,1.985,72.934,2.028,72.943z"
	/>
<path fill="#BDC3C7" d="M2.028,25.973c0.017,0.865,0,46.996,0,46.996L40.972,96.02V25.932C40.972,25.932,1.985,25.963,2.028,25.973z
	"/>
<path fill="#BDC3C7" d="M40.972,23.968c0,0-40.983,0.031-40.941,0.041c0.018,0.865,0,4.022,0,4.022l40.94,24.051l40.94-24.051
	c0,0-0.033-3.198-0.008-3.987C81.813,23.849,40.972,23.968,40.972,23.968L40.972,23.968z"/>
<path fill="#95A5A6" d="M46.994,54.95l7.004-3.998v12.991l-7.004,3.996V54.95z"/>
<path fill="#95A5A6" d="M57.001,48.952l7.005-3.998v12.994l-7.005,3.995V48.952L57.001,48.952z"/>
<path fill="#95A5A6" d="M0.034,28.032L40.86,52.016h0.111V24.033H0.034v0.217c0.008,0.758,0.003,2.276,0,3.141V28.032z"/>
<path fill="#95A5A6" d="M67.008,42.956l7.007-3.997V51.95l-7.007,3.998V42.956z"/>
<path fill="#95A5A6" d="M46.994,71.95l7.004-3.998v12.991l-7.004,3.998V71.95z"/>
<path fill="#95A5A6" d="M67.008,59.956l7.007-3.998V68.95l-7.007,3.998V59.956z"/>
<path fill="#6BC9F2" d="M57.008,72.956l7.005-3.998v17.422l-7.005,4.146V72.956z"/>
<path fill="#3498DB" d="M57.008,65.956l7.005-3.998v3.992l-7.005,3.998V65.956z"/>
<path fill="#ECF0F1" d="M40.972-0.018L0,24.033l40.972,24.051l41.034-24.051L40.972-0.018z"/>
<path fill="#D48A6D" d="M40.972,4.011L5.991,24.033l34.981,20.022l34.981-20.022L40.972,4.011z"/>
<path fill="#7F8C8D" d="M34.981,54.98l-6.989-3.998v12.992l6.989,3.995V54.98z"/>
<path fill="#7F8C8D" d="M24.996,48.983l-6.989-3.998v12.994l6.989,3.996V48.983L24.996,48.983z"/>
<path fill="#7F8C8D" d="M15.011,42.987l-6.989-3.998V51.98l6.989,3.998V42.987z"/>
<path fill="#7F8C8D" d="M34.981,71.969l-6.989-3.996v12.99l6.989,3.998V71.969z"/>
<path fill="#7F8C8D" d="M24.996,65.973l-6.989-3.996v12.99l6.989,3.998V65.973z"/>
<path fill="#7F8C8D" d="M15.011,59.977l-6.989-3.998v12.992l6.989,3.998V59.977z"/>
<polygon fill="#BDC3C7" points="74.015,44.58 67.008,48.952 67.008,50.952 74.015,46.579 "/>
<polygon fill="#BDC3C7" points="74.015,61.581 67.008,65.952 67.008,67.952 74.015,63.579 "/>
<polygon fill="#BDC3C7" points="64.006,50.577 57.001,54.95 57.001,56.948 64.006,52.575 "/>
<polygon fill="#BDC3C7" points="53.998,56.573 46.994,60.945 46.994,62.943 53.998,58.573 "/>
<polygon fill="#BDC3C7" points="53.998,73.573 46.994,77.945 46.994,79.943 53.998,75.573 "/>
<polygon fill="#95A5A6" points="27.992,56.604 27.992,58.604 34.981,62.975 34.981,60.977 "/>
<polygon fill="#95A5A6" points="27.992,73.594 27.992,75.592 34.981,79.965 34.981,77.965 "/>
<polygon fill="#95A5A6" points="18.007,67.598 18.007,69.596 24.996,73.969 24.996,71.969 "/>
<polygon fill="#95A5A6" points="18.007,50.607 18.007,52.605 24.996,56.979 24.996,54.98 "/>
<polygon fill="#95A5A6" points="8.019,61.6 8.019,63.598 15.011,67.973 15.011,65.973 "/>
<polygon fill="#95A5A6" points="8.019,44.609 8.019,46.608 15.011,50.982 15.011,48.983 "/>
<polygon fill="#AA6F57" points="40.972,6.011 74.206,25.033 75.953,24.033 40.972,4.011 5.991,24.033 7.738,25.033 "/>
<g>
	<g>
		<defs>
			<circle id="SVGID_1_" cx="52.003" cy="4.011" r="23.125"/>
		</defs>
		<clipPath id="SVGID_2_">
			<use xlink:href="#SVGID_1_"  display="none" overflow="visible"/>
		</clipPath>
		<g clip-path="url(#SVGID_2_)">
			<path fill="#FFFFFF" d="M42.29,26.673c0,0.639-0.518,1.156-1.156,1.156c-0.639,0-1.156-0.518-1.156-1.156v-37.693
				c0-0.639,0.518-1.156,1.156-1.156c0.638,0,1.156,0.518,1.156,1.156V26.673z"/>
		</g>
	</g>
	<polygon fill="#3498DB" points="75.128,14.648 56.628,14.648 56.628,-7.552 75.128,-7.552 71.891,3.548 	"/>
	<path fill="#2E89BC" d="M56.628,14.648V-6.627l4.162-3.7v21.275L56.628,14.648z"/>
	<path opacity="0.6" fill="#FFFFFF" enable-background="new    " d="M64.499,1.005l-4.991,1.677l-0.136,5.029l-3.221-3.993
		l-5.073,1.432l3.001-4.145L51.078-3.14l5.075,1.432l3.219-3.994l0.136,5.03L64.499,1.005z"/>
	<rect x="42.29" y="-11.252" fill="#6BC9F2" width="18.5" height="22.2"/>
	<polygon fill="#FFFFFF" points="60.79,-5.167 58.003,-1.708 52.928,-3.14 55.929,1.005 52.928,5.149 58.003,3.718 60.79,7.176 	"/>
</g>
</svg>
