<?xml version="1.0" encoding="utf-8"?>
<!-- Generator: Adobe Illustrator 15.0.2, SVG Export Plug-In . SVG Version: 6.00 Build 0)  -->
<!DOCTYPE svg PUBLIC "-//W3C//DTD SVG 1.1//EN" "http://www.w3.org/Graphics/SVG/1.1/DTD/svg11.dtd">
<svg version="1.1" id="Layer_1" xmlns="http://www.w3.org/2000/svg" xmlns:xlink="http://www.w3.org/1999/xlink" x="0px" y="0px"
	 width="100px" height="100px" viewBox="0 0 100 100" enable-background="new 0 0 100 100" xml:space="preserve">
<g>
	<path fill="#EBEDED" d="M100,95c0,2.761-2.238,5-5,5H5c-2.761,0-5-2.239-5-5V5c0-2.761,2.239-5,5-5h90c2.762,0,5,2.239,5,5V95z"/>
	<path fill="#D4D7DA" d="M95,97H5c-2.761,0-5-2.239-5-5v3c0,2.761,2.239,5,5,5h90c2.762,0,5-2.239,5-5v-3
		C100,94.761,97.762,97,95,97z"/>
	<path fill="#E64C3C" d="M0,31V5c0-2.761,2.239-5,5-5h90c2.762,0,5,2.239,5,5v26H0z"/>
	<rect y="28" fill="#C03A2B" width="100" height="2.75"/>
	<g display="none" enable-background="new    ">
		<path display="inline" fill="#FFFFFF" d="M30.344,8.576l2.672,7.855h0.032l2.528-7.855h3.536V20H36.76v-8.096h-0.032L33.928,20
			h-1.936l-2.8-8.016H29.16V20h-2.352V8.576H30.344z M41.384,12.944c0.234-0.353,0.533-0.635,0.896-0.849
			c0.362-0.213,0.771-0.365,1.224-0.456c0.453-0.09,0.909-0.136,1.368-0.136c0.416,0,0.837,0.029,1.264,0.088
			c0.427,0.059,0.816,0.174,1.168,0.344c0.352,0.171,0.64,0.408,0.864,0.713c0.224,0.304,0.336,0.706,0.336,1.208v4.304
			c0,0.373,0.021,0.73,0.064,1.072c0.042,0.341,0.117,0.597,0.224,0.768h-2.304l-0.104-0.392L46.328,19.2
			c-0.363,0.373-0.79,0.635-1.28,0.784c-0.491,0.148-0.992,0.224-1.504,0.224c-0.395,0-0.763-0.048-1.104-0.144
			c-0.342-0.097-0.64-0.246-0.896-0.448c-0.256-0.203-0.456-0.459-0.6-0.769c-0.144-0.309-0.216-0.677-0.216-1.104
			c0-0.47,0.083-0.856,0.248-1.16c0.166-0.304,0.379-0.547,0.64-0.728c0.261-0.182,0.56-0.317,0.896-0.408
			c0.336-0.091,0.675-0.163,1.016-0.216c0.341-0.054,0.677-0.097,1.008-0.129c0.331-0.031,0.624-0.079,0.88-0.144
			c0.256-0.063,0.458-0.157,0.608-0.28c0.149-0.122,0.218-0.301,0.208-0.536c0-0.245-0.04-0.439-0.12-0.584
			c-0.08-0.144-0.187-0.256-0.32-0.336c-0.134-0.08-0.288-0.133-0.464-0.159c-0.176-0.027-0.365-0.04-0.568-0.04
			c-0.448,0-0.8,0.096-1.056,0.287c-0.256,0.192-0.405,0.513-0.448,0.961h-2.272C41.016,13.738,41.149,13.296,41.384,12.944z
			 M45.872,16.152c-0.144,0.048-0.298,0.088-0.464,0.12l-0.52,0.079l-0.544,0.08c-0.171,0.032-0.339,0.075-0.504,0.128
			c-0.166,0.054-0.31,0.126-0.432,0.217c-0.122,0.091-0.221,0.205-0.296,0.344C43.037,17.259,43,17.435,43,17.648
			c0,0.202,0.037,0.373,0.112,0.512c0.075,0.139,0.176,0.248,0.304,0.328c0.128,0.08,0.277,0.136,0.448,0.168
			c0.17,0.032,0.347,0.048,0.528,0.048c0.448,0,0.795-0.074,1.04-0.224c0.246-0.149,0.427-0.328,0.544-0.536
			c0.118-0.208,0.189-0.419,0.216-0.633c0.026-0.213,0.04-0.384,0.04-0.512v-0.848C46.136,16.037,46.016,16.104,45.872,16.152z
			 M52.424,11.728v1.536h0.032c0.106-0.256,0.25-0.493,0.433-0.712c0.182-0.218,0.389-0.405,0.623-0.56
			c0.234-0.155,0.485-0.274,0.752-0.36c0.269-0.085,0.545-0.128,0.832-0.128c0.149,0,0.314,0.026,0.496,0.08v2.112l-0.384-0.057
			l-0.433-0.023c-0.416,0-0.77,0.069-1.058,0.208c-0.286,0.139-0.521,0.328-0.694,0.567c-0.176,0.24-0.303,0.521-0.377,0.841
			c-0.073,0.319-0.11,0.666-0.11,1.04V20h-2.272v-8.272H52.424L52.424,11.728z M60.15,13.216c-0.361,0-0.666,0.083-0.912,0.248
			c-0.244,0.166-0.444,0.379-0.6,0.64c-0.154,0.262-0.265,0.55-0.328,0.864c-0.062,0.315-0.097,0.627-0.097,0.938
			c0,0.299,0.032,0.603,0.097,0.912c0.063,0.31,0.168,0.589,0.312,0.84s0.338,0.456,0.584,0.616
			c0.245,0.159,0.544,0.239,0.896,0.239c0.543,0,0.963-0.151,1.256-0.456c0.293-0.304,0.479-0.712,0.554-1.224h2.19
			c-0.148,1.099-0.576,1.936-1.279,2.512c-0.703,0.576-1.605,0.864-2.703,0.864c-0.619,0-1.188-0.104-1.704-0.312
			c-0.519-0.208-0.958-0.499-1.319-0.872c-0.361-0.374-0.646-0.819-0.849-1.336c-0.203-0.518-0.306-1.086-0.306-1.704
			c0-0.641,0.095-1.235,0.279-1.784c0.188-0.55,0.461-1.024,0.824-1.424c0.362-0.4,0.805-0.712,1.328-0.937
			c0.521-0.224,1.12-0.336,1.792-0.336c0.489,0,0.962,0.064,1.416,0.192c0.453,0.128,0.858,0.322,1.216,0.584
			c0.357,0.261,0.646,0.587,0.872,0.976c0.224,0.39,0.353,0.851,0.384,1.384h-2.224C61.684,13.69,61.122,13.216,60.15,13.216z
			 M67.654,8.576v4.304h0.049c0.288-0.479,0.656-0.829,1.104-1.048c0.447-0.219,0.885-0.328,1.312-0.328
			c0.607,0,1.105,0.083,1.496,0.248c0.39,0.166,0.695,0.395,0.92,0.688s0.382,0.65,0.472,1.071c0.091,0.422,0.138,0.889,0.138,1.4
			V20h-2.271v-4.672c0-0.683-0.105-1.192-0.318-1.528c-0.215-0.336-0.594-0.504-1.138-0.504c-0.618,0-1.065,0.185-1.345,0.552
			c-0.276,0.368-0.415,0.974-0.415,1.816V20h-2.272V8.576H67.654L67.654,8.576z"/>
	</g>
	<g display="none" enable-background="new    ">
		<path display="inline" fill="#35495E" d="M26.77,55.045c0.49-1.579,1.226-2.959,2.208-4.141c0.981-1.18,2.215-2.1,3.703-2.76
			c1.487-0.658,3.197-0.988,5.129-0.988c1.472,0,2.875,0.229,4.209,0.688c1.334,0.46,2.507,1.12,3.519,1.979
			c1.012,0.857,1.817,1.917,2.415,3.174c0.598,1.258,0.897,2.668,0.897,4.232c0,1.625-0.261,3.021-0.782,4.186
			c-0.522,1.166-1.212,2.201-2.07,3.105c-0.859,0.902-1.833,1.725-2.921,2.461c-1.089,0.733-2.185,1.465-3.289,2.185
			c-1.104,0.722-2.178,1.495-3.22,2.323c-1.043,0.828-1.963,1.794-2.76,2.896h15.226V80H25.39c0-1.87,0.268-3.496,0.805-4.876
			c0.536-1.38,1.265-2.614,2.185-3.703c0.92-1.088,2.001-2.093,3.243-3.013s2.553-1.855,3.933-2.807
			c0.705-0.49,1.457-0.988,2.254-1.494c0.797-0.508,1.525-1.065,2.185-1.682c0.659-0.611,1.211-1.303,1.656-2.068
			c0.444-0.768,0.667-1.642,0.667-2.621c0-1.564-0.453-2.783-1.357-3.657c-0.905-0.874-2.063-1.312-3.473-1.312
			c-0.951,0-1.756,0.224-2.415,0.666c-0.66,0.444-1.189,1.027-1.587,1.748c-0.399,0.723-0.683,1.52-0.851,2.394
			c-0.169,0.874-0.253,1.739-0.253,2.599h-6.256C26.064,58.334,26.279,56.625,26.77,55.045L26.77,55.045z M50.736,72.548v-5.979
			L64.721,47.8h5.842v19.366h4.277v5.382h-4.277V80h-6.209v-7.452H50.736L50.736,72.548z M64.214,55.988l-8.325,11.178h8.465V55.988
			H64.214z"/>
	</g>
</g>
<g enable-background="new    ">
	<path fill="#35495E" d="M27.275,55.255c0.479-1.545,1.2-2.896,2.16-4.051c0.959-1.154,2.167-2.054,3.623-2.699
		c1.455-0.646,3.127-0.968,5.018-0.968c1.44,0,2.812,0.225,4.117,0.675c1.305,0.45,2.453,1.096,3.442,1.936
		c0.99,0.84,1.778,1.875,2.363,3.104c0.585,1.23,0.877,2.61,0.877,4.14c0,1.591-0.255,2.956-0.765,4.096
		c-0.51,1.141-1.186,2.152-2.025,3.037c-0.84,0.886-1.793,1.688-2.857,2.407c-1.065,0.721-2.138,1.434-3.218,2.138
		c-1.08,0.705-2.13,1.463-3.15,2.272c-1.02,0.811-1.92,1.755-2.7,2.835h14.895v5.49h-23.13c0-1.829,0.262-3.42,0.788-4.77
		c0.524-1.351,1.238-2.558,2.138-3.623c0.9-1.064,1.958-2.048,3.172-2.947c1.215-0.9,2.498-1.814,3.848-2.745
		c0.689-0.479,1.424-0.968,2.205-1.463c0.78-0.495,1.492-1.042,2.137-1.643c0.645-0.6,1.185-1.274,1.62-2.024
		c0.435-0.75,0.652-1.604,0.652-2.565c0-1.529-0.443-2.723-1.327-3.577c-0.885-0.855-2.018-1.282-3.398-1.282
		c-0.93,0-1.717,0.218-2.362,0.652c-0.646,0.435-1.163,1.005-1.552,1.71c-0.391,0.705-0.668,1.484-0.833,2.34
		c-0.166,0.855-0.248,1.703-0.248,2.543h-6.12C26.584,58.472,26.795,56.8,27.275,55.255z"/>
	<path fill="#35495E" d="M61.25,79.667v-20.43h-7.92v-4.815c1.109,0.03,2.183-0.052,3.217-0.247c1.035-0.195,1.965-0.54,2.791-1.035
		c0.824-0.495,1.521-1.147,2.092-1.958c0.57-0.81,0.945-1.814,1.125-3.015h5.086v31.5H61.25z"/>
</g>
<g enable-background="new    ">
	<path fill="#FFFFFF" d="M30.45,11.378v1.19h0.034c0.317-0.453,0.7-0.805,1.147-1.055c0.448-0.249,0.96-0.374,1.539-0.374
		c0.555,0,1.062,0.108,1.521,0.323c0.459,0.216,0.808,0.595,1.045,1.139c0.261-0.385,0.615-0.725,1.062-1.02s0.978-0.442,1.59-0.442
		c0.464,0,0.895,0.058,1.292,0.17c0.396,0.114,0.736,0.295,1.02,0.544c0.283,0.25,0.504,0.576,0.663,0.978
		c0.158,0.403,0.238,0.888,0.238,1.454v5.882h-2.414v-4.981c0-0.294-0.011-0.571-0.034-0.833c-0.022-0.26-0.085-0.486-0.187-0.68
		c-0.102-0.192-0.252-0.346-0.45-0.459c-0.199-0.113-0.468-0.17-0.808-0.17s-0.615,0.065-0.824,0.195
		c-0.21,0.131-0.374,0.301-0.493,0.51c-0.119,0.21-0.199,0.448-0.238,0.715c-0.04,0.266-0.059,0.535-0.059,0.807v4.896H33.68v-4.93
		c0-0.261-0.006-0.519-0.017-0.773c-0.011-0.256-0.06-0.49-0.145-0.706c-0.085-0.215-0.227-0.388-0.425-0.519
		c-0.199-0.13-0.491-0.195-0.875-0.195c-0.114,0-0.264,0.025-0.451,0.076c-0.187,0.052-0.369,0.147-0.544,0.289
		c-0.176,0.143-0.326,0.346-0.451,0.612c-0.125,0.267-0.187,0.615-0.187,1.046v5.1h-2.414v-8.789H30.45z"/>
	<path fill="#FFFFFF" d="M47.705,12.959c-0.386,0-0.708,0.088-0.969,0.264s-0.473,0.402-0.637,0.68
		c-0.165,0.278-0.281,0.584-0.349,0.918c-0.068,0.335-0.102,0.666-0.102,0.995c0,0.317,0.034,0.64,0.102,0.969
		s0.178,0.626,0.332,0.893c0.153,0.267,0.359,0.484,0.62,0.654s0.578,0.255,0.952,0.255c0.578,0,1.023-0.161,1.334-0.484
		s0.507-0.757,0.586-1.301h2.33c-0.159,1.168-0.612,2.058-1.36,2.669c-0.748,0.612-1.706,0.918-2.873,0.918
		c-0.657,0-1.261-0.11-1.811-0.331s-1.017-0.53-1.402-0.927c-0.386-0.396-0.686-0.869-0.901-1.419
		c-0.216-0.55-0.323-1.153-0.323-1.811c0-0.681,0.099-1.312,0.297-1.896c0.198-0.584,0.49-1.089,0.875-1.514
		s0.856-0.756,1.411-0.994s1.19-0.357,1.904-0.357c0.521,0,1.023,0.068,1.505,0.204c0.481,0.137,0.912,0.343,1.292,0.621
		c0.38,0.277,0.688,0.623,0.927,1.037c0.238,0.413,0.373,0.903,0.408,1.47H49.49C49.331,13.464,48.736,12.959,47.705,12.959z"/>
	<path fill="#FFFFFF" d="M55.678,8.029v4.572h0.051c0.307-0.51,0.697-0.881,1.174-1.113c0.476-0.232,0.939-0.349,1.394-0.349
		c0.646,0,1.175,0.088,1.589,0.264s0.74,0.42,0.979,0.731c0.237,0.312,0.404,0.691,0.501,1.139c0.097,0.448,0.145,0.943,0.145,1.487
		v5.406h-2.414v-4.964c0-0.726-0.113-1.267-0.34-1.624c-0.228-0.356-0.63-0.535-1.207-0.535c-0.657,0-1.134,0.195-1.429,0.587
		c-0.295,0.391-0.441,1.034-0.441,1.929v4.607h-2.414V8.029H55.678z"/>
	<path fill="#FFFFFF" d="M65.639,11.378V12.5h0.035c0.294-0.476,0.668-0.821,1.121-1.037c0.453-0.215,0.952-0.323,1.496-0.323
		c0.691,0,1.287,0.131,1.785,0.392s0.912,0.606,1.241,1.037s0.572,0.932,0.731,1.504c0.158,0.572,0.237,1.171,0.237,1.794
		c0,0.589-0.079,1.156-0.237,1.7c-0.159,0.544-0.4,1.025-0.723,1.444c-0.323,0.42-0.726,0.754-1.207,1.003
		c-0.482,0.249-1.046,0.374-1.691,0.374c-0.545,0-1.046-0.11-1.505-0.331s-0.836-0.547-1.13-0.978h-0.035v4.165h-2.414V11.378
		H65.639z M68.775,18.348c0.267-0.158,0.482-0.365,0.646-0.62s0.28-0.553,0.349-0.893c0.067-0.34,0.102-0.686,0.102-1.037
		c0-0.351-0.036-0.697-0.11-1.037s-0.195-0.643-0.365-0.909s-0.389-0.481-0.654-0.646c-0.267-0.164-0.593-0.246-0.979-0.246
		c-0.396,0-0.728,0.082-0.994,0.246c-0.266,0.165-0.481,0.377-0.646,0.638c-0.164,0.261-0.279,0.562-0.348,0.901
		s-0.102,0.691-0.102,1.054c0,0.352,0.036,0.697,0.109,1.037c0.074,0.34,0.193,0.638,0.357,0.893s0.383,0.462,0.654,0.62
		c0.272,0.159,0.602,0.238,0.986,0.238C68.178,18.586,68.51,18.507,68.775,18.348z"/>
</g>
</svg>
