<?xml version="1.0" encoding="utf-8"?>
<!-- Generator: Adobe Illustrator 15.0.2, SVG Export Plug-In . SVG Version: 6.00 Build 0)  -->
<!DOCTYPE svg PUBLIC "-//W3C//DTD SVG 1.1//EN" "http://www.w3.org/Graphics/SVG/1.1/DTD/svg11.dtd">
<svg version="1.1" id="Layer_1" xmlns="http://www.w3.org/2000/svg" xmlns:xlink="http://www.w3.org/1999/xlink" x="0px" y="0px"
	 width="108px" height="108px" viewBox="-4 -4 108 108" enable-background="new -4 -4 108 108" xml:space="preserve">
<circle opacity="0.6" fill="#5FCCFF" enable-background="new    " cx="50" cy="50" r="54"/>
<path display="none" fill="#D35400" d="M50,11c-16.016,0-29,13.984-29,30v32c0,2.762,2.239,5,5,5h48c2.762,0,5-2.238,5-5V41
	C79,24.984,66.016,11,50,11z"/>
<circle display="none" fill="#D48A6D" cx="24" cy="47" r="7"/>
<circle display="none" fill="#D48A6D" cx="76" cy="47" r="7"/>
<g>
	<path fill="#D35400" d="M74,67H26c-2.761,0-5-2.238-5-5V44c0-3.866,3.134-6,7-6h44c3.866,0,7,2.134,7,6v18
		C79,64.762,76.762,67,74,67z"/>
	<path fill="#DF9274" d="M50,20c14.359,0,26,11.641,26,26v15c0,14.359-11.641,26-26,26c-14.359,0-26-11.641-26-26V46
		C24,31.641,35.641,20,50,20z"/>
	<path fill="#D35400" d="M50,13c-16.016,0-29,13.984-29,30c18.616,0,39-14,39-14s11.562,14,19,14C79,26.984,66.016,13,50,13z"/>
	<path fill="#3498DB" d="M40,55.5c-2.481,0-4.5-2.02-4.5-4.5c0-2.481,2.019-4.5,4.5-4.5s4.5,2.019,4.5,4.5
		C44.5,53.48,42.481,55.5,40,55.5z"/>
	<path fill="#FFFFFF" d="M40,48c1.654,0,3,1.346,3,3c0,1.654-1.346,3-3,3s-3-1.346-3-3C37,49.346,38.346,48,40,48 M40,45
		c-3.313,0-6,2.687-6,6c0,3.312,2.687,6,6,6s6-2.688,6-6C46,47.687,43.313,45,40,45z"/>
	<path fill="#3498DB" d="M60,55.5c-2.48,0-4.5-2.02-4.5-4.5c0-2.481,2.02-4.5,4.5-4.5s4.5,2.019,4.5,4.5
		C64.5,53.48,62.48,55.5,60,55.5z"/>
	<path fill="#FFFFFF" d="M60,48c1.654,0,3,1.346,3,3c0,1.654-1.346,3-3,3s-3-1.346-3-3C57,49.346,58.346,48,60,48 M60,45
		c-3.312,0-6,2.687-6,6c0,3.312,2.688,6,6,6s6-2.688,6-6C66,47.687,63.312,45,60,45z"/>
	<path fill="#FFFFFF" stroke="#B87054" stroke-width="2" stroke-miterlimit="10" d="M59,68c0,5.523-4.029,10-9,10
		c-4.971,0-9-4.477-9-10H59z"/>
</g>
</svg>
